<svg width="22" height="22" viewBox="0 0 22 22" fill="none" xmlns="http://www.w3.org/2000/svg">
<g id="&#230;&#136;&#144;&#229;&#138;&#159;">
<g id="Union">
<path d="M20.1666 10.9999C20.1666 16.0625 16.0625 20.1666 10.9999 20.1666C5.93731 20.1666 1.83325 16.0625 1.83325 10.9999C1.83325 5.93731 5.93731 1.83325 10.9999 1.83325C16.0625 1.83325 20.1666 5.93731 20.1666 10.9999ZM10.2819 15.0091C10.498 15.0091 10.7148 14.926 10.8803 14.7605L16.8035 8.81244C17.1335 8.4807 17.1335 7.94324 16.8035 7.61151C16.4726 7.27891 15.9369 7.27891 15.6069 7.61151L10.2819 12.9579L7.49519 10.16C7.16517 9.82822 6.62942 9.82822 6.29854 10.16C5.96852 10.4917 5.96852 11.03 6.29854 11.3617L9.68362 14.7605C9.84906 14.926 10.0651 15.0091 10.2819 15.0091Z" fill="#00C880"/>
</g>
</g>
</svg>
